<svg width="130" height="63" viewBox="0 0 130 63" fill="none" xmlns="http://www.w3.org/2000/svg">
<path d="M60.8781 35.8464C55.9326 35.8464 51.7129 34.1004 48.2191 30.6083C44.7253 27.1162 42.9792 22.8965 42.981 17.9492C42.981 13.0037 44.727 8.78402 48.2191 5.2902C51.7112 1.79637 55.9309 0.0503278 60.8781 0.0520643C65.8271 0.0520643 70.0468 1.79811 73.5372 5.2902C77.0275 8.78228 78.7736 13.002 78.7753 17.9492C78.7753 22.8982 77.0292 27.1179 73.5372 30.6083C70.0451 34.0986 65.8254 35.8447 60.8781 35.8464ZM60.8781 27.4956C62.135 27.5164 63.3828 27.2794 64.5444 26.7991C65.7061 26.3189 66.757 25.6056 67.6322 24.7033C68.5345 23.8281 69.2478 22.7772 69.728 21.6155C70.2083 20.4539 70.4453 19.2061 70.4245 17.9492C70.4446 16.6933 70.2072 15.4465 69.727 14.2857C69.2468 13.125 68.5338 12.075 67.6322 11.2004C65.8393 9.4122 63.4104 8.40804 60.8781 8.40804C58.3459 8.40804 55.917 9.4122 54.124 11.2004C53.2223 12.076 52.5093 13.1269 52.0291 14.2885C51.5489 15.4501 51.3115 16.6977 51.3318 17.9544C51.3115 19.2112 51.5489 20.4588 52.0291 21.6204C52.5093 22.782 53.2223 23.8329 54.124 24.7085C54.9997 25.6099 56.0508 26.3222 57.2124 26.8015C58.3741 27.2809 59.6216 27.5171 60.8781 27.4956Z" fill="#45197D"/>
<path d="M41.7881 40.113C41.7877 39.5648 41.9258 39.0253 42.1897 38.5447C42.4535 38.0642 42.8346 37.6581 43.2974 37.3641C43.7602 37.0702 44.2898 36.8981 44.8369 36.8636C45.3841 36.8292 45.9311 36.9335 46.4271 37.1671C56.0629 41.7254 65.7005 41.7254 75.3397 37.1671C75.8354 36.9353 76.3816 36.8323 76.9277 36.8676C77.4737 36.903 78.0021 37.0755 78.4638 37.3691C78.9255 37.6628 79.3057 38.0683 79.5691 38.5479C79.8326 39.0275 79.9708 39.5658 79.971 40.113C79.9703 40.6392 79.8426 41.1575 79.5986 41.6237C79.3546 42.0899 79.0016 42.4902 78.5696 42.7907C66.7754 50.9869 54.9811 50.9869 43.1868 42.7907C42.7552 42.4901 42.4025 42.0897 42.159 41.6234C41.9155 41.1572 41.7882 40.639 41.7881 40.113Z" fill="#45197D"/>
<path d="M26.0371 29.7774V5.59238C26.0364 4.11078 26.624 2.68951 27.6706 1.64089C28.7173 0.592264 30.1375 0.00207104 31.6191 0C33.1023 0 34.5247 0.589195 35.5735 1.63797C36.6223 2.68674 37.2115 4.10919 37.2115 5.59238V29.7774C37.2115 35.0841 35.3421 39.6059 31.6035 43.3429C27.8648 47.0798 23.3438 48.9491 18.0406 48.9509C12.7356 48.9509 8.21376 47.0815 4.47509 43.3429C2.80701 41.7021 1.45364 39.7696 0.482025 37.6411C0.103409 36.7892 -0.0562523 35.8562 0.0175591 34.927C0.0913705 33.9977 0.396313 33.1016 0.904656 32.3202C1.413 31.5388 2.10862 30.8968 2.92825 30.4527C3.74788 30.0086 4.66552 29.7765 5.59773 29.7774H5.6368C6.7059 29.771 7.75392 30.0747 8.654 30.6516C9.55408 31.2285 10.2676 32.054 10.7082 33.0281C11.1134 33.9237 11.6813 34.7362 12.3831 35.4245C13.1154 36.1817 13.9954 36.7804 14.9686 37.1837C15.9417 37.5869 16.9873 37.7861 18.0406 37.7687C19.0913 37.7725 20.1324 37.5684 21.104 37.1682C22.0755 36.768 22.9583 36.1796 23.7016 35.4369C24.4448 34.6941 25.0338 33.8117 25.4346 32.8404C25.8355 31.8691 26.0402 30.8281 26.0371 29.7774Z" fill="#45197D"/>
<path d="M90.9785 0.0781255H105.112C111.655 0.0781255 118.029 2.50574 122.689 7.09529C127.019 11.3566 129.429 16.4116 129.917 22.2601C130.252 26.362 129.573 30.4834 127.94 34.2612C126.307 38.0389 123.77 41.3572 120.553 43.9237C116.253 47.3411 111.244 49.049 105.526 49.0472H90.8639C90.0329 49.0472 89.2101 48.8835 88.4424 48.5653C87.6748 48.2472 86.9774 47.7809 86.3901 47.193C85.8027 46.6052 85.337 45.9074 85.0195 45.1395C84.7019 44.3716 84.5389 43.5487 84.5396 42.7177V6.51183C84.5399 5.6666 84.7067 4.82972 85.0305 4.04896C85.3543 3.2682 85.8286 2.55886 86.4265 1.96144C87.0245 1.36401 87.7342 0.890203 88.5152 0.567064C89.2962 0.243925 90.1332 0.0777834 90.9785 0.0781255ZM96.7818 11.0545V38.0709C96.7818 38.1994 96.8329 38.3226 96.9237 38.4134C97.0146 38.5043 97.1378 38.5553 97.2663 38.5553H105.526C108.907 38.5553 111.793 37.1913 114.184 34.4633C116.575 31.7353 117.77 28.4359 117.768 24.5653C117.768 20.6946 116.574 17.3953 114.184 14.6673C111.795 11.9392 108.909 10.5735 105.526 10.57H97.2663C97.1378 10.57 97.0146 10.6211 96.9237 10.7119C96.8329 10.8028 96.7818 10.926 96.7818 11.0545Z" fill="#45197D"/>
<path d="M93.7604 51.7249C94.2464 51.4866 94.7819 51.3661 95.3232 51.3733C95.8501 51.3627 96.3707 51.4893 96.8339 51.7406C97.2672 51.9793 97.6192 52.3421 97.8446 52.7825C98.0933 53.2828 98.2167 53.8362 98.204 54.3948C98.2026 54.691 98.1747 54.9865 98.1207 55.2778C97.9999 56.0241 97.7182 56.7351 97.295 57.3616C96.9088 57.9377 96.3944 58.4165 95.792 58.7603C95.2302 59.0836 94.5935 59.2542 93.9453 59.2552C93.4481 59.2707 92.9559 59.1519 92.5205 58.9114C92.1531 58.7056 91.8467 58.4064 91.6323 58.044L90.7962 62.7742H88.853L90.8378 51.5035H92.781L92.5882 52.6053C92.9188 52.2394 93.3168 51.9405 93.7604 51.7249ZM96.1802 54.7907C96.194 54.5587 96.1594 54.3264 96.0787 54.1085C95.998 53.8906 95.8729 53.6918 95.7113 53.5248C95.5522 53.3726 95.3642 53.2538 95.1584 53.1755C94.9526 53.0972 94.7332 53.061 94.5131 53.069C94.1495 53.0675 93.7913 53.157 93.4712 53.3295C93.1206 53.5184 92.8184 53.7858 92.5882 54.1109C92.3339 54.4672 92.1646 54.8771 92.0933 55.3091C92.0635 55.4813 92.0452 55.6553 92.0386 55.83C92.0252 56.0624 92.0604 56.295 92.142 56.513C92.2237 56.731 92.3499 56.9295 92.5127 57.0959C92.6713 57.2473 92.8585 57.3655 93.0633 57.4438C93.2681 57.5221 93.4865 57.5588 93.7057 57.5517C94.0705 57.5475 94.4285 57.4526 94.7476 57.2756C95.0959 57.0844 95.3967 56.8174 95.628 56.4942C95.8858 56.1347 96.0562 55.72 96.1255 55.283C96.1567 55.1205 96.1767 54.956 96.1854 54.7907H96.1802Z" fill="#45197D"/>
<path d="M99.1545 53.2357C99.5339 52.663 100.046 52.1903 100.647 51.8578C101.216 51.5397 101.857 51.3729 102.509 51.3733C103.011 51.3577 103.508 51.4774 103.947 51.7197C104.311 51.9217 104.61 52.2224 104.809 52.5871L105.002 51.4983H106.945L105.593 59.1276H103.658L103.864 58.0102C103.539 58.3861 103.137 58.6888 102.687 58.8984C102.194 59.1351 101.654 59.2554 101.108 59.25C100.587 59.2608 100.073 59.1303 99.6208 58.8723C99.1882 58.6183 98.8382 58.2448 98.6128 57.7966C98.3664 57.2936 98.2441 56.739 98.2559 56.179C98.2664 55.1296 98.5803 54.1055 99.1598 53.2305L99.1545 53.2357ZM104.382 54.7985C104.4 54.5726 104.369 54.3456 104.292 54.1324C104.216 53.9192 104.094 53.7248 103.937 53.562C103.779 53.3992 103.589 53.2718 103.378 53.1881C103.168 53.1045 102.942 53.0665 102.715 53.0768C102.352 53.0768 101.994 53.1663 101.673 53.3373C101.326 53.5204 101.027 53.7816 100.798 54.1005C100.541 54.4537 100.371 54.8623 100.301 55.2934C100.275 55.4572 100.261 55.6226 100.259 55.7883C100.246 56.0258 100.281 56.2634 100.361 56.4871C100.442 56.7109 100.566 56.9161 100.728 57.0907C100.882 57.2476 101.067 57.3709 101.271 57.4529C101.475 57.535 101.693 57.5739 101.913 57.5674C102.276 57.5676 102.634 57.4781 102.955 57.3069C103.305 57.1202 103.605 56.8522 103.83 56.5255C104.08 56.1665 104.248 55.7563 104.32 55.3247C104.353 55.1484 104.374 54.97 104.382 54.7907V54.7985Z" fill="#45197D"/>
<path d="M109.425 51.4983L110.446 56.8302L113.408 51.4983H115.46L108.751 62.743H106.698L109.011 58.94L107.261 51.4983H109.425Z" fill="#45197D"/>
</svg>
