<svg width="18" height="18" viewBox="0 0 18 18" fill="none" xmlns="http://www.w3.org/2000/svg">
<g id="elements">
<g id="Icon">
<path fill-rule="evenodd" clip-rule="evenodd" d="M5.29864 5.04167C5.01456 5.04162 4.74238 5.04157 4.51863 5.07166C4.26778 5.10538 3.98652 5.18688 3.75341 5.42C3.5203 5.65311 3.4388 5.93437 3.40507 6.18521C3.37499 6.40896 3.37504 6.68114 3.37509 6.96522V7.70145C3.37504 7.98553 3.37499 8.25772 3.40507 8.48147C3.4388 8.73232 3.5203 9.01358 3.75341 9.24669C3.98652 9.4798 4.26778 9.5613 4.51863 9.59503C4.74238 9.62511 5.01456 9.62506 5.29865 9.62501H6.03487C6.31895 9.62506 6.59113 9.62511 6.81488 9.59503C7.06573 9.5613 7.34699 9.4798 7.5801 9.24669C7.81321 9.01358 7.89472 8.73232 7.92844 8.48147C7.95852 8.25772 7.95848 7.98553 7.95843 7.70145V6.96523C7.95848 6.68115 7.95852 6.40897 7.92844 6.18521C7.89472 5.93437 7.81321 5.65311 7.5801 5.42C7.34699 5.18688 7.06573 5.10538 6.81488 5.07166C6.59113 5.04157 6.31895 5.04162 6.03487 5.04167H5.29864ZM4.60467 6.3272C4.60463 6.32718 4.60528 6.32688 4.60674 6.32635L4.60467 6.3272ZM4.68519 6.31051C4.67123 6.31239 4.65941 6.31428 4.6495 6.31608C4.64769 6.326 4.6458 6.33781 4.64392 6.35177C4.62642 6.48199 4.62509 6.66807 4.62509 7.00001V7.66667C4.62509 7.99861 4.62642 8.18469 4.64392 8.31491C4.6458 8.32887 4.64769 8.34069 4.6495 8.3506C4.65941 8.3524 4.67123 8.3543 4.68519 8.35617C4.8154 8.37368 5.00148 8.37501 5.33342 8.37501H6.00009C6.33203 8.37501 6.51811 8.37368 6.64832 8.35617C6.66229 8.3543 6.6741 8.3524 6.68401 8.3506C6.68582 8.34069 6.68771 8.32887 6.68959 8.31491C6.7071 8.18469 6.70842 7.99861 6.70842 7.66668V7.00001C6.70842 6.66807 6.7071 6.48199 6.68959 6.35177C6.68771 6.33781 6.68582 6.326 6.68401 6.31608C6.6741 6.31428 6.66229 6.31239 6.64832 6.31051C6.51811 6.293 6.33203 6.29167 6.00009 6.29167H5.33342C5.00148 6.29167 4.8154 6.293 4.68519 6.31051ZM4.60467 8.33948L4.60674 8.34033C4.60528 8.3398 4.60463 8.3395 4.60467 8.33948ZM4.65977 8.39335L4.66062 8.39543C4.6606 8.39547 4.6603 8.39482 4.65977 8.39335ZM6.6729 8.39543L6.67375 8.39336C6.67322 8.39482 6.67292 8.39547 6.6729 8.39543ZM6.72677 8.34033L6.72884 8.33948C6.72889 8.3395 6.72824 8.3398 6.72677 8.34033ZM6.72884 6.3272C6.72887 6.32719 6.72933 6.3274 6.72884 6.3272V6.3272ZM6.67375 6.27333L6.6729 6.27125C6.67292 6.27121 6.67322 6.27186 6.67375 6.27333ZM4.65977 6.27333C4.6603 6.27186 4.6606 6.27121 4.66062 6.27125L4.65977 6.27333Z" fill="#767676"/>
<path d="M3.37508 12.3333C3.37508 11.9882 3.6549 11.7083 4.00008 11.7083H7.33341C7.67859 11.7083 7.95841 11.9882 7.95841 12.3333C7.95841 12.6785 7.67859 12.9583 7.33341 12.9583H4.00008C3.6549 12.9583 3.37508 12.6785 3.37508 12.3333Z" fill="#767676"/>
<path d="M10.6667 5.04167C10.3216 5.04167 10.0417 5.32149 10.0417 5.66667C10.0417 6.01184 10.3216 6.29167 10.6667 6.29167H14.0001C14.3453 6.29167 14.6251 6.01184 14.6251 5.66667C14.6251 5.32149 14.3453 5.04167 14.0001 5.04167H10.6667Z" fill="#767676"/>
<path d="M10.0417 9C10.0417 8.65482 10.3216 8.375 10.6667 8.375H14.0001C14.3453 8.375 14.6251 8.65482 14.6251 9C14.6251 9.34518 14.3453 9.625 14.0001 9.625H10.6667C10.3216 9.625 10.0417 9.34518 10.0417 9Z" fill="#767676"/>
<path d="M10.6667 11.7083C10.3216 11.7083 10.0417 11.9882 10.0417 12.3333C10.0417 12.6785 10.3216 12.9583 10.6667 12.9583H14.0001C14.3453 12.9583 14.6251 12.6785 14.6251 12.3333C14.6251 11.9882 14.3453 11.7083 14.0001 11.7083H10.6667Z" fill="#767676"/>
<path fill-rule="evenodd" clip-rule="evenodd" d="M9.04356 0.875H8.95661C7.02924 0.874992 5.5252 0.874986 4.35304 1.01682C3.16026 1.16115 2.21622 1.46133 1.46903 2.13379C0.712426 2.81474 0.365977 3.68956 0.201157 4.79289C0.0417199 5.86018 0.0417326 7.22435 0.0417484 8.94792V9.05208C0.0417326 10.7757 0.0417199 12.1398 0.201157 13.2071C0.365977 14.3104 0.712426 15.1853 1.46903 15.8662C2.21622 16.5387 3.16026 16.8389 4.35304 16.9832C5.5252 17.125 7.02924 17.125 8.9566 17.125H9.04357C10.9709 17.125 12.475 17.125 13.6471 16.9832C14.8399 16.8389 15.7839 16.5387 16.5311 15.8662C17.2877 15.1853 17.6342 14.3104 17.799 13.2071C17.9584 12.1398 17.9584 10.7757 17.9584 9.0521V8.94789C17.9584 7.22434 17.9584 5.86017 17.799 4.79289C17.6342 3.68956 17.2877 2.81474 16.5311 2.13379C15.7839 1.46133 14.8399 1.16115 13.6471 1.01682C12.475 0.874986 10.9709 0.874992 9.04356 0.875ZM2.30524 3.06291C2.77845 2.63702 3.42669 2.38803 4.5032 2.25777C5.59152 2.12608 7.01995 2.125 9.00008 2.125C10.9802 2.125 12.4086 2.12608 13.497 2.25777C14.5735 2.38803 15.2217 2.63702 15.6949 3.06291C16.1587 3.48031 16.4224 4.03855 16.5627 4.97757C16.7068 5.94191 16.7084 7.21266 16.7084 9C16.7084 10.7873 16.7068 12.0581 16.5627 13.0224C16.4224 13.9615 16.1587 14.5197 15.6949 14.9371C15.2217 15.363 14.5735 15.612 13.497 15.7422C12.4086 15.8739 10.9802 15.875 9.00008 15.875C7.01995 15.875 5.59152 15.8739 4.5032 15.7422C3.42669 15.612 2.77845 15.363 2.30524 14.9371C1.84146 14.5197 1.57771 13.9615 1.43744 13.0224C1.29338 12.0581 1.29175 10.7873 1.29175 9C1.29175 7.21266 1.29338 5.94191 1.43744 4.97757C1.57771 4.03855 1.84146 3.48031 2.30524 3.06291Z" fill="#767676"/>
</g>
</g>
</svg>
