<svg width="18" height="22" viewBox="0 0 18 22" fill="none" xmlns="http://www.w3.org/2000/svg">
<g id="elements">
<g id="Icon">
<path fill-rule="evenodd" clip-rule="evenodd" d="M9 4.75C6.92893 4.75 5.25 6.42893 5.25 8.5C5.25 10.5711 6.92893 12.25 9 12.25C11.0711 12.25 12.75 10.5711 12.75 8.5C12.75 6.42893 11.0711 4.75 9 4.75ZM6.75 8.5C6.75 7.25736 7.75736 6.25 9 6.25C10.2426 6.25 11.25 7.25736 11.25 8.5C11.25 9.74264 10.2426 10.75 9 10.75C7.75736 10.75 6.75 9.74264 6.75 8.5Z" fill="#45197D"/>
<path fill-rule="evenodd" clip-rule="evenodd" d="M9 0.25C4.52225 0.25 0.75 4.01857 0.75 8.5869C0.75 13.2671 4.60753 16.3945 7.82708 18.4273L7.84001 18.4355L7.85327 18.4431C8.20217 18.644 8.59738 18.75 9 18.75C9.40262 18.75 9.79783 18.644 10.1467 18.4431L10.1583 18.4365L10.1696 18.4294C13.4018 16.4121 17.25 13.2513 17.25 8.5869C17.25 4.01857 13.4778 0.25 9 0.25ZM2.25 8.5869C2.25 4.83749 5.36016 1.75 9 1.75C12.6398 1.75 15.75 4.83749 15.75 8.5869C15.75 12.3676 12.6123 15.1344 9.3885 17.1488C9.26904 17.2153 9.13542 17.25 9 17.25C8.86512 17.25 8.73204 17.2156 8.61295 17.1496C5.38924 15.1117 2.25 12.3802 2.25 8.5869Z" fill="#45197D"/>
<path d="M3.24204 17.7098C3.63409 17.5762 3.84355 17.15 3.70987 16.7579C3.5762 16.3659 3.15001 16.1564 2.75796 16.2901C2.09537 16.516 1.50834 16.7945 1.07184 17.1351C0.645468 17.4678 0.25 17.9534 0.25 18.5924C0.25 19.2874 0.714913 19.7999 1.19388 20.1407C1.69193 20.495 2.36402 20.7834 3.12701 21.013C4.6625 21.4751 6.73873 21.75 9 21.75C11.2613 21.75 13.3375 21.4751 14.873 21.013C15.636 20.7834 16.3081 20.495 16.8061 20.1407C17.2851 19.7999 17.75 19.2874 17.75 18.5924C17.75 17.9534 17.3545 17.4678 16.9282 17.1351C16.4917 16.7945 15.9046 16.516 15.242 16.2901C14.85 16.1564 14.4238 16.3659 14.2901 16.7579C14.1565 17.15 14.3659 17.5762 14.758 17.7098C15.3401 17.9083 15.7531 18.1208 16.0054 18.3177C16.2071 18.4751 16.2433 18.5697 16.2492 18.5921C16.2431 18.6148 16.2015 18.7299 15.9365 18.9184C15.6249 19.1401 15.1254 19.3706 14.4407 19.5766C13.0808 19.9859 11.157 20.25 9 20.25C6.843 20.25 4.91922 19.9859 3.55928 19.5766C2.87455 19.3706 2.37507 19.1401 2.06348 18.9184C1.79848 18.7299 1.75689 18.6148 1.75083 18.5921C1.75674 18.5697 1.79285 18.4751 1.99461 18.3177C2.24693 18.1208 2.65991 17.9083 3.24204 17.7098Z" fill="#45197D"/>
</g>
</g>
</svg>
