<svg width="170" height="83" viewBox="0 0 170 83" fill="none" xmlns="http://www.w3.org/2000/svg">
<path d="M79.6098 46.8761C73.1426 46.8761 67.6246 44.5928 63.0557 40.0262C58.4869 35.4597 56.2036 29.9416 56.2058 23.4721C56.2058 17.0049 58.4891 11.4868 63.0557 6.91798C67.6223 2.34913 73.1403 0.0658461 79.6098 0.0681169C86.0816 0.0681169 91.5996 2.3514 96.164 6.91798C100.728 11.4846 103.012 17.0026 103.014 23.4721C103.014 29.9439 100.731 35.4619 96.164 40.0262C91.5974 44.5905 86.0793 46.8738 79.6098 46.8761ZM79.6098 35.9558C81.2534 35.9831 82.8851 35.6731 84.4042 35.0451C85.9233 34.417 87.2976 33.4843 88.4421 32.3044C89.622 31.1598 90.5548 29.7856 91.1828 28.2665C91.8108 26.7474 92.1208 25.1157 92.0935 23.4721C92.1199 21.8297 91.8094 20.1992 91.1814 18.6814C90.5534 17.1635 89.6212 15.7904 88.4421 14.6466C86.0975 12.3083 82.9212 10.9952 79.6098 10.9952C76.2985 10.9952 73.1222 12.3083 70.7776 14.6466C69.5983 15.7917 68.666 17.166 68.038 18.685C67.41 20.204 67.0997 21.8354 67.1261 23.4789C67.0997 25.1224 67.41 26.7539 68.038 28.2729C68.666 29.7918 69.5983 31.1662 70.7776 32.3112C71.9227 33.4899 73.2972 34.4214 74.8162 35.0482C76.3353 35.675 77.9667 35.9839 79.6098 35.9558Z" fill="white"/>
<path d="M54.6458 52.4555C54.6452 51.7386 54.8259 51.0331 55.1709 50.4047C55.516 49.7762 56.0142 49.2452 56.6195 48.8608C57.2247 48.4765 57.9172 48.2513 58.6327 48.2063C59.3483 48.1612 60.0636 48.2977 60.7122 48.6031C73.3129 54.5639 85.9158 54.5639 98.521 48.6031C99.1692 48.3 99.8834 48.1654 100.598 48.2115C101.312 48.2577 102.003 48.4833 102.606 48.8674C103.21 49.2514 103.707 49.7816 104.052 50.4088C104.396 51.036 104.577 51.7399 104.577 52.4555C104.576 53.1436 104.409 53.8213 104.09 54.431C103.771 55.0406 103.31 55.5642 102.745 55.9571C87.3214 66.6753 71.8982 66.6753 56.4749 55.9571C55.9104 55.564 55.4493 55.0404 55.1308 54.4307C54.8123 53.821 54.6459 53.1434 54.6458 52.4555Z" fill="white"/>
<path d="M34.0485 38.9397V7.31311C34.0476 5.37563 34.816 3.51705 36.1847 2.14578C37.5534 0.774498 39.4106 0.00270828 41.348 0C43.2876 0 45.1477 0.770486 46.5192 2.14196C47.8907 3.51343 48.6611 5.37355 48.6611 7.31311V38.9397C48.6611 45.8792 46.2166 51.7924 41.3276 56.6791C36.4386 61.5659 30.5265 64.0104 23.5915 64.0127C16.6542 64.0127 10.7411 61.5682 5.85204 56.6791C3.6707 54.5335 1.90092 52.0064 0.63034 49.223C0.135228 48.109 -0.0735607 46.8889 0.0229619 45.6737C0.119485 44.4585 0.518256 43.2867 1.18301 42.2649C1.84777 41.243 2.75742 40.4035 3.82925 39.8228C4.90107 39.2421 6.10107 38.9385 7.32011 38.9397H7.37121C8.76925 38.9313 10.1397 39.3284 11.3168 40.0829C12.4938 40.8373 13.4269 41.9168 14.0031 43.1906C14.5329 44.3617 15.2756 45.4243 16.1933 46.3243C17.1509 47.3145 18.3017 48.0975 19.5743 48.6248C20.8469 49.1521 22.2142 49.4125 23.5915 49.3899C24.9656 49.3948 26.327 49.1279 27.5975 48.6046C28.868 48.0813 30.0225 47.3118 30.9944 46.3405C31.9663 45.3692 32.7365 44.2153 33.2607 42.9451C33.7848 41.675 34.0526 40.3137 34.0485 38.9397Z" fill="white"/>
<path d="M118.972 0.102174H137.454C146.01 0.102174 154.345 3.27675 160.439 9.27847C166.102 14.851 169.253 21.4613 169.891 29.1094C170.329 34.4734 169.441 39.8629 167.306 44.8031C165.171 49.7432 161.853 54.0825 157.646 57.4387C152.023 61.9076 145.473 64.141 137.996 64.1387H118.822C117.735 64.1387 116.659 63.9246 115.656 63.5085C114.652 63.0925 113.74 62.4827 112.972 61.714C112.204 60.9453 111.595 60.0328 111.179 59.0286C110.764 58.0244 110.551 56.9483 110.552 55.8616V8.51548C110.552 7.41019 110.77 6.3158 111.194 5.29481C111.617 4.27381 112.237 3.34621 113.019 2.56496C113.801 1.78372 114.729 1.16412 115.751 0.741554C116.772 0.318988 117.867 0.101726 118.972 0.102174ZM126.561 14.4559V49.785C126.561 49.953 126.628 50.1142 126.746 50.233C126.865 50.3518 127.026 50.4185 127.194 50.4185H137.996C142.417 50.4185 146.191 48.6348 149.318 45.0674C152.445 41.5 154.007 37.1855 154.005 32.1238C154.005 27.0622 152.442 22.7477 149.318 19.1803C146.193 15.6129 142.419 13.8269 137.996 13.8223H127.194C127.026 13.8223 126.865 13.8891 126.746 14.0079C126.628 14.1267 126.561 14.2879 126.561 14.4559Z" fill="white"/>
<path d="M122.61 67.6402C123.245 67.3286 123.946 67.171 124.653 67.1804C125.342 67.1665 126.023 67.332 126.629 67.6607C127.196 67.9728 127.656 68.4473 127.951 69.0232C128.276 69.6775 128.437 70.4011 128.421 71.1316C128.419 71.519 128.382 71.9054 128.312 72.2863C128.154 73.2622 127.785 74.192 127.232 75.0113C126.727 75.7646 126.054 76.3907 125.267 76.8404C124.532 77.2631 123.699 77.4863 122.852 77.4876C122.201 77.5078 121.558 77.3525 120.988 77.0379C120.508 76.7688 120.107 76.3775 119.827 75.9037L118.733 82.0893H116.192L118.788 67.3507H121.329L121.077 68.7915C121.509 68.313 122.03 67.9221 122.61 67.6402ZM125.774 71.6493C125.792 71.346 125.747 71.0422 125.641 70.7572C125.536 70.4723 125.372 70.2123 125.161 69.9939C124.953 69.7948 124.707 69.6395 124.438 69.5371C124.169 69.4347 123.882 69.3874 123.594 69.3978C123.119 69.3958 122.65 69.5129 122.232 69.7385C121.773 69.9855 121.378 70.3353 121.077 70.7603C120.744 71.2263 120.523 71.7623 120.43 72.3272C120.391 72.5524 120.367 72.78 120.358 73.0084C120.341 73.3123 120.387 73.6165 120.493 73.9015C120.6 74.1866 120.765 74.4462 120.978 74.6638C121.186 74.8618 121.43 75.0164 121.698 75.1188C121.966 75.2211 122.252 75.2691 122.538 75.2599C123.015 75.2543 123.483 75.1303 123.901 74.8988C124.356 74.6488 124.75 74.2996 125.052 73.877C125.389 73.4069 125.612 72.8645 125.703 72.2931C125.743 72.0806 125.77 71.8655 125.781 71.6493H125.774Z" fill="white"/>
<path d="M129.664 69.6159C130.16 68.867 130.83 68.2488 131.616 67.814C132.36 67.3981 133.198 67.18 134.051 67.1804C134.707 67.1601 135.357 67.3165 135.931 67.6335C136.407 67.8976 136.798 68.2908 137.059 68.7677L137.311 67.3439H139.852L138.084 77.3207H135.553L135.822 75.8594C135.397 76.351 134.872 76.7469 134.283 77.0209C133.639 77.3305 132.933 77.4879 132.219 77.4808C131.538 77.4949 130.865 77.3242 130.274 76.9869C129.708 76.6547 129.25 76.1662 128.955 75.5801C128.633 74.9224 128.473 74.1971 128.489 73.4649C128.502 72.0925 128.913 70.7534 129.671 69.6091L129.664 69.6159ZM136.5 71.6596C136.523 71.3642 136.483 71.0672 136.383 70.7885C136.282 70.5097 136.124 70.2554 135.918 70.0426C135.711 69.8297 135.462 69.663 135.187 69.5537C134.912 69.4443 134.616 69.3947 134.32 69.4081C133.845 69.4081 133.377 69.5251 132.958 69.7487C132.504 69.9881 132.112 70.3298 131.813 70.7467C131.477 71.2087 131.255 71.743 131.163 72.3068C131.129 72.5209 131.11 72.7372 131.108 72.9539C131.091 73.2644 131.136 73.5752 131.242 73.8678C131.347 74.1603 131.51 74.4288 131.721 74.657C131.923 74.8622 132.164 75.0235 132.431 75.1307C132.698 75.238 132.984 75.289 133.271 75.2804C133.746 75.2807 134.214 75.1637 134.634 74.9398C135.091 74.6956 135.484 74.3452 135.778 73.9179C136.105 73.4485 136.324 72.9121 136.418 72.3476C136.462 72.1171 136.489 71.8838 136.5 71.6494V71.6596Z" fill="white"/>
<path d="M143.095 67.3439L144.43 74.3164L148.303 67.3439H150.987L142.212 82.0485H139.528L142.553 77.0754L140.264 67.3439H143.095Z" fill="white"/>
</svg>
