<svg width="250" height="250" viewBox="0 0 250 250" fill="none" xmlns="http://www.w3.org/2000/svg">
<path d="M34.5637 102.913H200.634V192.92H34.5656L34.5637 102.913Z" fill="#6E34B8"/>
<path d="M34.5637 192.92C87.6615 187.047 142.577 185.898 200.634 192.92V224.066H34.5656L34.5637 192.92Z" fill="#FF4B3D"/>
<path d="M27.073 119.239C27.073 119.239 30.8802 142.426 30.8802 158.219C30.8802 174.013 28.542 205.936 28.542 205.936L44.1399 210.138L59.7359 205.936C59.7359 205.936 57.3996 174.013 57.3996 158.219C57.3996 142.426 61.2068 119.239 61.2068 119.239H44.1399H27.073Z" fill="#FFC517"/>
<path d="M27.073 119.239C27.073 119.239 27.4089 121.338 27.8647 124.499C30.5554 125.717 33.6244 126.509 36.9536 126.339C46.6848 125.841 53.3931 128.83 58.9092 136.271C59.974 126.856 61.2068 119.238 61.2068 119.238H44.1399L27.073 119.239ZM58.7726 191.342C54.1922 191.809 52.6217 201.427 37.6974 201.542C34.1817 201.569 31.2327 202.027 28.7671 202.715L28.5438 205.936L44.1399 210.138L59.7359 205.936C59.7359 205.936 59.2801 199.619 58.7726 191.342Z" fill="#FFAC17"/>
<path d="M22.9503 108.753C22.9503 108.753 20.2781 121.347 29.9668 122.773C39.6555 124.2 59.0366 123.486 63.3808 121.823C67.725 120.16 70.3973 106.853 70.3973 106.853L22.9503 108.753ZM22.9503 218.347C22.9503 218.347 20.2781 205.753 29.9668 204.327C39.6555 202.9 59.0366 203.614 63.3808 205.277C67.725 206.94 70.3973 220.247 70.3973 220.247L22.9503 218.347ZM217.972 119.239C217.972 119.239 214.163 142.426 214.163 158.219C214.163 174.013 216.499 205.936 216.499 205.936L200.903 210.138L185.307 205.936C185.307 205.936 187.644 174.013 187.644 158.219C187.644 142.426 183.836 119.239 183.836 119.239H200.903H217.972Z" fill="#FFC517"/>
<path d="M217.972 119.239C217.972 119.239 217.634 121.338 217.178 124.499C214.488 125.717 211.417 126.509 208.089 126.339C198.356 125.841 191.648 128.83 186.134 136.271C185.069 126.856 183.834 119.238 183.834 119.238H200.901L217.972 119.239ZM186.27 191.342C190.851 191.809 192.421 201.427 207.344 201.542C210.861 201.569 213.81 202.027 216.276 202.715L216.499 205.936L200.901 210.138L185.307 205.936C185.307 205.936 185.763 199.619 186.27 191.342Z" fill="#FFAC17"/>
<path d="M222.093 108.753C222.093 108.753 224.765 121.347 215.076 122.773C205.386 124.2 186.007 123.486 181.662 121.823C177.318 120.16 174.646 106.853 174.646 106.853L222.093 108.753ZM222.093 218.347C222.093 218.347 224.765 205.753 215.076 204.327C205.386 202.9 186.007 203.614 181.662 205.277C177.318 206.94 174.646 220.247 174.646 220.247L222.093 218.347ZM102.682 119.239C102.682 119.239 106.491 142.426 106.491 158.219C106.491 174.013 104.155 205.936 104.155 205.936L119.752 210.138L135.347 205.936C135.347 205.936 133.01 174.013 133.01 158.219C133.01 142.426 136.819 119.239 136.819 119.239H119.752H102.682Z" fill="#FFC517"/>
<path d="M102.682 119.239C102.682 119.239 103.02 121.338 103.475 124.499C106.166 125.717 109.237 126.509 112.564 126.339C122.297 125.841 129.006 128.83 134.52 136.271C135.585 126.856 136.819 119.238 136.819 119.238H119.752L102.682 119.239ZM134.383 191.342C129.805 191.809 128.234 201.427 113.31 201.542C109.794 201.569 106.845 202.027 104.378 202.715L104.156 205.936L119.751 210.138L135.347 205.936C135.347 205.936 134.891 199.619 134.383 191.342Z" fill="#FFAC17"/>
<path d="M98.5609 108.753C98.5609 108.753 95.8887 121.347 105.579 122.773C115.268 124.2 134.649 123.486 138.991 121.823C143.336 120.16 146.01 106.853 146.01 106.853L98.5609 108.753ZM98.5609 218.347C98.5609 218.347 95.8887 205.753 105.579 204.327C115.268 202.9 134.649 203.614 138.991 205.277C143.334 206.94 146.01 220.247 146.01 220.247L98.5609 218.347Z" fill="#FFC517"/>
<path d="M121.738 32.4858C101.757 32.4858 50.409 69.9506 27.5344 87.4291L20.8076 87.9089C15.9725 87.9089 12.0823 93.2404 12.0823 99.862C12.0823 106.485 15.9744 111.815 20.8076 111.815H225.544C230.379 111.815 234.269 106.485 234.269 99.862C234.269 93.2404 230.375 88.1562 225.546 87.9089C225.546 87.9089 221.29 87.5878 215.623 87.1818C192.58 69.5944 141.623 32.4858 121.738 32.4858ZM20.8076 213.962C20.8076 213.962 90.2674 208.765 124.412 208.785C158.559 208.807 225.544 213.962 225.544 213.962C230.375 214.209 234.269 219.293 234.269 225.915C234.269 232.536 230.379 237.87 225.544 237.87H20.8076C15.9744 237.87 12.0823 232.536 12.0823 225.915C12.0823 219.293 15.9744 213.962 20.8076 213.962Z" fill="#45197D"/>
<path d="M27.5344 87.4291L215.623 87.1818C215.623 87.1818 132.283 67.0108 27.5326 87.4291H27.5344Z" fill="#6E34B8"/>
<path d="M131.656 63.6244C131.656 66.2544 130.611 68.7766 128.752 70.6365C126.892 72.4963 124.37 73.5414 121.74 73.5419C120.438 73.5419 119.148 73.2854 117.945 72.787C116.741 72.2886 115.648 71.5581 114.727 70.6371C113.806 69.7162 113.076 68.6229 112.577 67.4197C112.079 66.2164 111.822 64.9268 111.822 63.6244C111.823 60.9944 112.868 58.4723 114.728 56.6128C116.588 54.7533 119.11 53.7087 121.74 53.7087C124.37 53.7092 126.891 54.754 128.751 56.6135C130.61 58.4729 131.655 60.9947 131.656 63.6244Z" fill="white"/>
<path d="M193.566 12.2096C181.816 12.2101 170.547 16.878 162.239 25.1866C153.931 33.4952 149.263 44.7639 149.263 56.5137C149.263 62.9424 150.662 69.294 153.363 75.1278C156.064 80.9616 160.002 86.1377 164.904 90.2969C163.317 94.0782 160.473 97.9002 155.46 100.716C143.23 107.585 166.749 107.009 180.61 98.8801C184.809 100.164 189.175 100.817 193.566 100.818C205.316 100.818 216.585 96.1501 224.893 87.8415C233.202 79.5329 237.87 68.2639 237.87 56.5137C237.87 50.6956 236.724 44.9345 234.497 39.5593C232.271 34.1841 229.007 29.3 224.893 25.186C220.779 21.072 215.895 17.8085 210.52 15.582C205.145 13.3556 199.384 12.2096 193.566 12.2096Z" fill="#FFC517"/>
<path d="M194.614 81.9868C195.417 81.9494 196.173 81.5947 196.715 81.0006C197.257 80.4064 197.54 79.6214 197.504 78.8181L197.371 75.9023C198.527 75.3306 199.59 74.5891 200.527 73.7025C203.007 71.3753 204.371 68.7566 204.616 66.2043C204.862 63.652 204.026 61.3969 202.968 59.6769C200.973 56.4326 198.118 54.6259 197.795 54.4247C197.703 54.3604 197.608 54.3013 197.509 54.2475C197.509 54.2475 192.643 51.5568 189.212 48.2645C187.498 46.6165 186.283 44.8209 186.016 43.7173C185.746 42.6155 185.66 42.1708 187.474 40.8144C191.608 37.7195 193.719 38.4946 195.664 39.6646C197.607 40.8365 198.818 42.789 198.818 42.789C199.019 43.1335 199.285 43.4349 199.603 43.6762C199.92 43.9174 200.282 44.0937 200.668 44.195C201.054 44.2963 201.455 44.3206 201.85 44.2665C202.245 44.2124 202.626 44.081 202.97 43.8797C203.664 43.4744 204.168 42.8106 204.373 42.034C204.578 41.2573 204.466 40.4312 204.063 39.7366C204.063 39.7366 202.289 36.5735 198.794 34.4678C197.74 33.8443 196.594 33.3926 195.398 33.1298L195.267 30.3229C195.249 29.9246 195.152 29.5339 194.983 29.173C194.814 28.8121 194.575 28.4881 194.28 28.2195C193.986 27.951 193.641 27.7431 193.266 27.6078C192.891 27.4725 192.493 27.4124 192.095 27.431C191.291 27.4684 190.535 27.8233 189.993 28.4179C189.451 29.0124 189.168 29.7979 189.205 30.6016L189.328 33.2535C187.542 33.7149 185.684 34.5712 183.834 35.9553C180.655 38.3359 179.368 42.0785 180.116 45.1494C180.861 48.2202 182.878 50.5935 185.014 52.642C189.092 56.5599 194.009 59.2469 194.453 59.4868C194.488 59.5108 196.642 60.978 197.799 62.8603C198.382 63.8089 198.666 64.7095 198.58 65.6248C198.491 66.5402 198.063 67.6955 196.374 69.2807C194.883 70.6796 193.883 70.9158 192.971 70.8955C192.06 70.877 191.045 70.4637 190.037 69.7384C188.018 68.2879 186.494 65.8943 186.494 65.8943C186.08 65.2049 185.408 64.7081 184.628 64.5133C183.848 64.3185 183.022 64.4415 182.332 64.8553C181.643 65.2699 181.146 65.9414 180.951 66.7222C180.757 67.503 180.881 68.329 181.295 69.0187C181.295 69.0187 183.172 72.2796 186.494 74.6658C187.815 75.6144 189.447 76.467 191.338 76.8065L191.443 79.0968C191.481 79.9004 191.836 80.6563 192.43 81.1983C193.025 81.7402 193.81 82.0238 194.614 81.9868Z" fill="white"/>
</svg>
