<svg width="250" height="250" viewBox="0 0 250 250" fill="none" xmlns="http://www.w3.org/2000/svg">
<path d="M180.014 231.734C180.014 231.734 194.405 233.369 198.941 226.216C203.478 219.064 210.891 191.587 202.169 184.609C193.446 177.632 168.214 201.163 140.794 183.816C113.373 166.469 129.598 207.288 134.132 213.569C138.668 219.849 180.014 231.734 180.014 231.734Z" fill="#45197D"/>
<path d="M30.334 33.6189C30.334 33.6189 31.0334 18.4122 47.4304 18.4122C63.8292 18.4122 168.5 16.9285 183.153 21.7507C197.806 26.571 191.877 38.0683 186.992 43.6324C182.107 49.1946 156.638 106.749 158.731 166.459C160.823 226.169 180.014 231.734 180.014 231.734H24.4045C24.4045 231.734 13.5882 230.992 12.54 210.965C11.4936 190.938 11.8424 98.8912 30.334 33.6189Z" fill="#FFC517"/>
<path d="M95.5436 57.8997C95.5436 57.8997 88.6471 146.074 156.625 145.582C157.37 145.576 158.083 145.556 158.78 145.53C159.489 134.232 161.017 123.233 163.018 112.889C140.042 87.9679 95.5436 57.8997 95.5436 57.8997Z" fill="#FFAC17"/>
<path d="M45.2417 33.7721C45.2417 33.7721 82.8025 28.5125 84.4985 32.997C86.1963 37.4815 86.7795 44.9648 80.7946 45.7307C74.8116 46.4966 46.9653 46.862 45.0903 45.7455C43.2172 44.629 39.4432 33.9769 45.2417 33.7721Z" fill="white"/>
<path d="M166.406 115.085C166.406 115.085 176.525 126.948 179.839 138.811C183.153 150.673 197.458 129.216 200.599 125.377C203.245 122.144 184.087 118.785 176.22 108.203C174.751 106.229 177.92 114.386 166.406 115.085Z" fill="#45197D"/>
<path d="M193.951 79.7869C193.951 111.317 174.306 131.137 142.776 131.137C111.247 131.137 90.2101 110.621 90.2101 79.0912C90.2101 47.5614 111.248 27.5676 142.776 27.5676C174.306 27.5676 193.951 48.2571 193.951 79.7869ZM44.3503 55.2016C44.3503 55.2016 67.5847 53.9873 68.8858 57.359C70.185 60.7306 68.1236 61.8453 62.8861 61.6441C57.6487 61.4411 46.5759 61.5685 42.8351 61.1828C39.0944 60.7971 38.179 55.1831 44.3503 55.2016Z" fill="#45197D"/>
<path d="M181.945 79.6873C181.945 103.918 166.849 119.151 142.616 119.151C118.385 119.151 102.217 103.383 102.217 79.1521C102.217 54.9211 118.383 39.5539 142.614 39.5539C166.847 39.5539 181.947 55.4544 181.947 79.6854L181.945 79.6873Z" fill="white"/>
<path d="M43.3501 70.0171C43.3501 70.0171 78.6096 68.644 79.9088 72.0157C81.208 75.3855 79.1466 76.502 73.9092 76.299C68.6717 76.096 45.5775 76.3839 41.8368 75.9982C38.096 75.6125 37.177 69.9986 43.3501 70.0171Z" fill="#45197D"/>
<path d="M197.808 121.889C197.808 121.889 176.873 136.02 176.873 143.347C176.873 150.673 202.691 182.179 215.252 182.179C227.814 182.179 237.896 162.709 237.896 154.861C237.896 147.01 207.054 115.783 197.808 121.889Z" fill="#FFC517"/>
<path d="M188.561 157.477C196.587 153.29 218.741 130.786 216.822 125.726C214.903 120.668 211.415 120.494 203.389 128.17C196.808 134.464 184.24 146.514 179.933 150.64C176.934 153.515 180.537 161.663 188.561 157.477ZM208.101 177.189C216.125 173.003 238.279 150.5 236.36 145.439C234.441 140.381 230.953 140.206 222.929 147.883C216.346 154.178 203.778 166.225 199.473 170.353C196.472 173.229 200.075 181.376 208.101 177.189Z" fill="#FFAC17"/>
<path d="M33.0431 181.004C33.0431 181.004 143.118 179.791 144.417 183.163C145.716 186.533 143.655 187.649 138.419 187.446C133.18 187.243 35.2688 187.372 31.5298 186.985C27.7872 186.601 26.87 180.985 33.0431 181.004ZM32.0447 195.821C32.0447 195.821 101.7 194.448 103.001 197.819C104.3 201.189 102.239 202.306 97.0015 202.103C91.7641 201.9 34.2704 202.188 30.5296 201.802C26.7888 201.416 25.8735 195.802 32.0447 195.821ZM33.0431 212.173C33.0431 212.173 122.751 210.959 124.051 214.331C125.35 217.702 123.288 218.819 118.051 218.616C112.813 218.413 35.2688 218.54 31.528 218.155C27.7872 217.769 26.87 212.155 33.0431 212.173Z" fill="#45197D"/>
<path d="M33.3255 159.568C33.3255 159.568 134.727 156.252 136.192 160.818C137.653 165.385 137.853 172.887 131.837 173.343C125.82 173.799 34.37 172.73 32.5559 171.518C30.7418 170.305 27.5233 159.474 33.3255 159.568Z" fill="#FF4B3D"/>
</svg>
