<svg width="250" height="250" viewBox="0 0 250 250" fill="none" xmlns="http://www.w3.org/2000/svg">
<path d="M188.049 78.1482C184.908 74.6603 132.925 27.5602 78.8531 41.8663C24.7754 56.1687 42.5694 101.872 39.0796 106.406C35.5917 110.942 30.7067 100.477 30.0091 77.7994C29.3115 55.1223 48.08 12.2115 125.043 12.2115C158.395 12.2115 202.701 29.6548 214.563 58.959C226.426 88.2651 188.049 78.1482 188.049 78.1482Z" fill="#45197D"/>
<path d="M70.46 139.324C70.46 139.324 88.9719 117.621 102.272 125.63L106.543 128.247C119.867 136.415 124.049 153.838 115.881 167.164C107.713 180.49 90.2895 184.67 76.9634 176.502L71.7352 173.297C58.5106 165.096 62.3196 152.605 70.4618 139.322L70.46 139.324Z" fill="#FFAC17"/>
<path d="M62.3344 134.341C66.2569 127.942 72.5604 123.364 79.8583 121.613C87.1562 119.862 94.8508 121.081 101.25 125.003C107.649 128.925 112.227 135.229 113.979 142.528C115.73 149.826 114.51 157.521 110.588 163.92C106.665 170.318 100.362 174.897 93.0639 176.648C85.766 178.399 78.0714 177.18 71.6724 173.258C65.2735 169.336 60.6948 163.032 58.9436 155.733C57.1924 148.435 58.4121 140.74 62.3344 134.341Z" fill="#FFC517"/>
<path d="M76.9689 165.505C77.2043 165.65 77.4659 165.746 77.7387 165.79C78.0115 165.833 78.2901 165.822 78.5587 165.758C78.8272 165.693 79.0805 165.576 79.3039 165.414C79.5273 165.252 79.7165 165.047 79.8608 164.811L80.9164 163.088C81.7468 163.206 82.6437 163.202 83.5831 163.055C85.9084 162.685 87.7096 161.713 88.8427 160.345C89.9776 158.978 90.3744 157.359 90.4372 155.962C90.4973 154.241 90.1824 152.527 89.5144 150.939C89.4864 150.866 89.4544 150.794 89.4185 150.725C89.4185 150.725 87.6745 147.291 86.988 144.067C86.6466 142.455 86.6484 140.955 86.9234 140.217C87.2002 139.479 87.322 139.191 88.8888 139.119C92.4616 138.953 93.3733 140.219 94.0321 141.647C94.691 143.074 94.6264 144.663 94.6264 144.663C94.6073 144.938 94.6428 145.215 94.7308 145.477C94.8189 145.739 94.9577 145.981 95.1394 146.189C95.3211 146.398 95.5421 146.568 95.7898 146.691C96.0374 146.814 96.3068 146.886 96.5826 146.905C97.1379 146.942 97.6853 146.757 98.1046 146.391C98.5239 146.025 98.7809 145.508 98.8193 144.952C98.8193 144.952 99.0333 142.45 97.8486 139.883C97.4865 139.115 97.0043 138.41 96.4202 137.794L97.4389 136.133C97.73 135.658 97.8204 135.086 97.6903 134.544C97.5602 134.002 97.2201 133.534 96.745 133.243C96.2697 132.952 95.6982 132.861 95.1563 132.991C94.6143 133.122 94.1462 133.462 93.855 133.937L92.8935 135.505C91.5452 135.037 90.1182 134.838 88.6932 134.919C85.9434 135.048 83.7492 136.692 82.9833 138.744C82.2174 140.794 82.4518 142.939 82.8781 144.945C83.6938 148.778 85.4673 152.231 85.6279 152.541C85.6408 152.569 86.3033 154.248 86.2369 155.776C86.2 156.547 86.0154 157.175 85.6094 157.666C85.2016 158.155 84.5058 158.651 82.9206 158.902C81.5217 159.126 80.8573 158.873 80.3424 158.505C79.8257 158.14 79.405 157.509 79.1097 156.701C78.5154 155.084 78.5745 153.119 78.5745 153.119C78.5897 152.843 78.5504 152.567 78.4589 152.306C78.3675 152.046 78.2256 151.806 78.0413 151.6C77.8571 151.395 77.6342 151.227 77.3852 151.108C77.1363 150.988 76.8663 150.919 76.5906 150.904C76.3148 150.889 76.0387 150.928 75.778 151.02C75.5174 151.111 75.2774 151.253 75.0717 151.438C74.866 151.622 74.6987 151.845 74.5794 152.094C74.46 152.344 74.3909 152.614 74.376 152.89C74.376 152.89 74.186 155.488 75.1622 158.149C75.5498 159.207 76.1532 160.329 77.1073 161.259L76.2769 162.615C75.9856 163.09 75.8949 163.662 76.0246 164.204C76.1544 164.745 76.4941 165.214 76.9689 165.505Z" fill="white"/>
<path d="M109.636 65.8353C109.636 65.8353 125.854 88.9036 113.308 98.035L109.233 100.955C96.518 110.06 77.2937 108.233 66.2947 96.8723C55.2957 85.5135 56.6891 68.9227 69.4043 59.8172L74.3926 56.2444C87.1079 47.2385 98.6716 54.5115 109.636 65.8353Z" fill="#FFAC17"/>
<path d="M117.39 60.2822C120.006 62.9833 122 66.0845 123.259 69.4086C124.518 72.7328 125.018 76.2148 124.729 79.6559C124.441 83.0969 123.37 86.4297 121.577 89.4638C119.785 92.4979 117.306 95.174 114.282 97.3392C108.176 101.712 100.222 103.738 92.1701 102.972C84.118 102.207 76.6273 98.7121 71.3458 93.257C68.7305 90.5559 66.7363 87.4548 65.477 84.1306C64.2178 80.8065 63.7182 77.3245 64.0068 73.8834C64.2954 70.4423 65.3665 67.1096 67.1589 64.0755C68.9514 61.0414 71.4301 58.3653 74.4536 56.2C80.5598 51.8276 88.5138 49.8013 96.5659 50.5669C104.618 51.3324 112.109 54.8271 117.39 60.2822Z" fill="#FFC517"/>
<path d="M80.6765 63.2885C80.4515 63.4492 80.2671 63.6479 80.1336 63.8733C80.0002 64.0987 79.9204 64.3464 79.8988 64.6021C79.8772 64.8578 79.9142 65.1166 80.0078 65.3636C80.1013 65.6107 80.2495 65.8412 80.444 66.042L81.865 67.5109C81.4559 68.2402 81.175 69.0342 81.0345 69.8584C80.6543 72.0139 81.0622 73.9 82.0957 75.3228C83.1291 76.7475 84.659 77.6075 86.0689 78.1021C87.8219 78.6981 89.6709 78.9604 91.5205 78.8753C91.604 78.8738 91.6871 78.8683 91.7696 78.8587C91.7696 78.8587 95.861 78.414 99.3877 78.8274C101.15 79.0359 102.689 79.5102 103.355 79.9845C104.02 80.4587 104.278 80.6562 103.841 82.0514C102.846 85.2385 101.252 85.6371 99.5741 85.7645C97.8947 85.8937 96.2891 85.3345 96.2891 85.3345C96.0127 85.2309 95.7174 85.1748 95.4201 85.1694C95.1228 85.164 94.8294 85.2094 94.5567 85.303C94.284 85.3966 94.0373 85.5365 93.8308 85.7148C93.6242 85.8931 93.4619 86.1063 93.353 86.3421C93.1332 86.8173 93.1436 87.3557 93.382 87.8391C93.6205 88.3225 94.0673 88.7113 94.6245 88.9202C94.6245 88.9202 97.1215 89.8965 100.137 89.6658C100.977 89.6012 101.866 89.4074 102.745 89.0734L104.114 90.4889C104.308 90.6896 104.545 90.8566 104.811 90.9804C105.076 91.1042 105.365 91.1824 105.662 91.2106C105.958 91.2387 106.256 91.2161 106.538 91.1442C106.819 91.0723 107.08 90.9525 107.305 90.7915C107.529 90.6306 107.714 90.4317 107.847 90.2062C107.98 89.9807 108.059 89.733 108.08 89.4773C108.102 89.2216 108.064 88.9629 107.97 88.7159C107.877 88.469 107.728 88.2386 107.534 88.0381L106.242 86.702C107.146 85.6941 107.818 84.5004 108.211 83.2048C108.569 82.0848 108.563 80.8799 108.192 79.7638C107.822 78.6477 107.107 77.6781 106.149 76.9948C104.297 75.6771 102.021 75.2065 99.8269 74.9482C95.6322 74.4554 91.5149 74.9223 91.144 74.9666C91.1126 74.9666 89.1749 75.0183 87.6302 74.4776C86.8514 74.2045 86.2683 73.8427 85.8973 73.3334C85.5282 72.8204 85.244 72.0545 85.5042 70.5873C85.7312 69.29 86.2074 68.788 86.7518 68.4503C87.2943 68.1144 88.0805 67.9446 89.0032 67.9391C90.8542 67.928 92.851 68.5979 92.851 68.5979C93.4115 68.8 94.0334 68.8041 94.5802 68.6093C95.1269 68.4145 95.5537 68.0367 95.7669 67.5589C95.9793 67.0806 95.9602 66.5416 95.7137 66.0605C95.4673 65.5794 95.0138 65.1957 94.4529 64.9937C94.4529 64.9937 91.8508 64.0046 88.8058 64.023C87.5933 64.0304 86.2461 64.2057 84.9838 64.7483L83.8636 63.5912C83.4712 63.1868 82.9152 62.9278 82.3177 62.8711C81.7201 62.8143 81.1299 62.9645 80.6765 63.2885Z" fill="white"/>
<path d="M61.9929 171.95C65.1321 175.438 117.113 222.536 171.189 208.232C225.265 193.929 207.471 148.226 210.961 143.69C214.449 139.156 219.334 149.621 220.031 172.298C220.731 194.976 201.961 237.886 124.999 237.886C91.6459 237.886 47.3399 220.443 35.4773 191.137C23.6164 161.831 61.9929 171.95 61.9929 171.95Z" fill="#FF4B3D"/>
<path d="M59.7378 171.856C37.2046 171.719 38.5149 196.93 38.5149 196.93L38.598 197.391C40.7295 200.971 43.35 204.345 46.3748 207.497C52.8782 204.467 65.2022 198.905 83.5185 198.674C89.2297 198.607 94.9403 198.498 100.65 198.349C78.796 187.667 63.6428 173.784 61.993 171.95C61.2419 171.893 60.4891 171.862 59.736 171.857L59.7378 171.856ZM194.007 197.827C188.378 202.034 180.963 205.648 171.191 208.233C157.856 211.76 144.653 211.55 132.274 209.184C140.006 214.765 160.353 227.441 178.879 221.591C189.452 218.252 193.136 208.036 194.007 197.827Z" fill="#CF1531"/>
<path d="M16.1847 151.786C10.0541 157.821 12.743 167.613 12.743 167.613L26.1521 220.626C26.1521 220.626 28.8557 228.574 35.3241 226.596C41.7925 224.618 43.136 217.442 43.136 217.442L48.7388 184.855L81.4091 179.765C81.4091 179.765 88.6064 178.532 90.6863 172.097C92.7643 165.66 84.8602 162.833 84.8602 162.833L32.0632 148.592C32.0632 148.592 22.3154 145.751 16.1847 151.786Z" fill="#FF4B3D"/>
<path d="M132.796 179.204C132.796 179.204 116.584 202.265 129.127 211.397L133.2 214.312C145.912 223.416 165.131 221.589 176.126 210.232C187.121 198.875 185.728 182.29 173.016 173.186C172.976 173.157 168.07 169.643 168.028 169.615C155.316 160.609 143.756 167.884 132.796 179.204Z" fill="#FFAC17"/>
<path d="M125.043 173.653C122.429 176.353 120.435 179.454 119.176 182.777C117.917 186.1 117.417 189.581 117.706 193.021C117.994 196.461 119.065 199.793 120.858 202.826C122.65 205.859 125.128 208.535 128.151 210.699C131.174 212.863 134.682 214.475 138.475 215.441C142.268 216.407 146.272 216.709 150.258 216.33C154.244 215.951 158.134 214.898 161.706 213.232C165.278 211.565 168.462 209.317 171.077 206.617C173.691 203.916 175.685 200.816 176.944 197.493C178.203 194.169 178.702 190.688 178.413 187.248C178.125 183.808 177.053 180.476 175.261 177.443C173.469 174.41 170.99 171.735 167.967 169.571C164.944 167.406 161.436 165.795 157.643 164.829C153.85 163.863 149.846 163.56 145.86 163.94C141.874 164.319 137.984 165.371 134.412 167.038C130.84 168.705 127.656 170.953 125.042 173.653H125.043Z" fill="#FFC517"/>
<path d="M139.929 173.022C139.395 173.182 138.978 173.539 138.769 174.013C138.561 174.487 138.579 175.04 138.818 175.55L139.685 177.399C139.061 177.956 138.538 178.616 138.137 179.35C137.08 181.266 136.854 183.181 137.369 184.862C137.886 186.544 139.052 187.852 140.228 188.778C141.692 189.91 143.355 190.758 145.131 191.277C145.21 191.303 145.29 191.325 145.371 191.344C145.371 191.344 149.385 192.248 152.587 193.783C154.185 194.551 155.488 195.5 155.964 196.164C156.44 196.828 156.617 197.098 155.752 198.277C153.779 200.968 152.142 200.828 150.513 200.405C148.885 199.98 147.545 198.932 147.545 198.932C147.318 198.745 147.057 198.596 146.778 198.494C146.498 198.393 146.206 198.34 145.918 198.34C145.63 198.34 145.352 198.393 145.098 198.494C144.845 198.596 144.622 198.745 144.443 198.932C144.081 199.311 143.916 199.823 143.984 200.358C144.053 200.893 144.349 201.405 144.808 201.783C144.808 201.783 146.853 203.516 149.782 204.275C150.65 204.496 151.544 204.593 152.439 204.561L153.275 206.344C153.394 206.597 153.563 206.832 153.774 207.035C153.985 207.239 154.233 207.406 154.505 207.529C154.776 207.652 155.065 207.727 155.355 207.75C155.645 207.774 155.93 207.745 156.195 207.665C156.729 207.504 157.145 207.148 157.353 206.674C157.561 206.2 157.543 205.647 157.304 205.137L156.514 203.452C157.696 202.792 158.719 201.881 159.511 200.783C160.213 199.84 160.597 198.699 160.609 197.524C160.621 196.348 160.259 195.2 159.576 194.243C158.251 192.397 156.252 191.213 154.259 190.257C150.452 188.43 146.407 187.536 146.043 187.459C146.012 187.448 144.162 186.87 142.878 185.857C142.228 185.346 141.797 184.816 141.61 184.213C141.426 183.609 141.407 182.794 142.127 181.489C142.764 180.335 143.378 180.014 144 179.874C144.624 179.732 145.421 179.824 146.298 180.12C148.051 180.71 149.721 181.991 149.721 181.991C149.951 182.176 150.213 182.321 150.493 182.419C150.773 182.517 151.065 182.566 151.353 182.562C151.64 182.559 151.917 182.503 152.168 182.398C152.419 182.294 152.639 182.142 152.816 181.952C152.992 181.762 153.122 181.538 153.196 181.291C153.271 181.045 153.29 180.782 153.252 180.517C153.214 180.252 153.12 179.991 152.975 179.747C152.83 179.504 152.636 179.284 152.406 179.099C152.406 179.099 150.265 177.322 147.379 176.351C146.231 175.964 144.901 175.694 143.529 175.797L142.847 174.341C142.607 173.831 142.165 173.406 141.619 173.158C141.072 172.911 140.463 172.862 139.929 173.022Z" fill="white"/>
<path d="M113.502 40.1445C153.139 46.0758 185.261 75.2877 187.708 78.0042C187.708 78.0042 226.013 88.1045 214.172 58.852C212.271 54.1571 209.534 49.7686 206.144 45.7067C199.244 57.4993 173.694 58.9129 149.968 47.5245C139.425 42.4642 125.726 40.6132 113.502 40.1445ZM53.6108 54.0261C44.7378 60.5147 36.3022 71.3403 30.1955 82.736C31.408 101.827 35.7984 110.385 39.0076 106.212C41.7703 102.621 31.1736 73.1747 53.6108 54.0261Z" fill="#6E34B8"/>
<path d="M233.858 98.3118C239.986 92.2771 237.299 82.4851 237.299 82.4851L223.89 29.4721C223.89 29.4721 221.187 21.5237 214.718 23.5002C208.252 25.4786 206.905 32.6556 206.905 32.6556L201.302 65.2429L168.633 70.3308C168.633 70.3308 161.434 71.5654 159.356 78.0006C157.276 84.4357 165.182 87.2648 165.182 87.2648L217.977 101.504C217.977 101.504 227.727 104.346 233.858 98.3118Z" fill="#45197D"/>
<path d="M171.883 79.6597C171.883 79.6597 171.032 84.2567 170.532 88.6286L195.821 95.4513C185.959 81.3981 171.883 79.6597 171.883 79.6597Z" fill="#6E34B8"/>
<path d="M181.926 108.502C181.926 108.502 173.95 135.908 158.524 134.062L153.552 133.429C138.039 131.449 127.066 117.268 129.046 101.755C131.026 86.2425 145.207 75.2711 160.72 77.2495L166.806 78.0264C182.242 80.0767 183.899 93.0375 181.926 108.502Z" fill="#FFAC17"/>
<path d="M191.386 109.709C190.436 117.159 186.565 123.926 180.625 128.522C174.686 133.118 167.164 135.166 159.714 134.215C156.025 133.745 152.465 132.553 149.237 130.706C146.009 128.86 143.176 126.396 140.9 123.455C138.624 120.513 136.95 117.153 135.973 113.564C134.996 109.976 134.736 106.231 135.206 102.542C135.677 98.8528 136.869 95.2927 138.716 92.0648C140.562 88.8368 143.027 86.0042 145.968 83.7286C148.909 81.4529 152.27 79.779 155.858 78.8022C159.446 77.8254 163.191 77.5649 166.88 78.0357C170.569 78.506 174.129 79.6984 177.358 81.5447C180.586 83.3911 183.419 85.8552 185.694 88.7964C187.97 91.7376 189.644 95.0983 190.621 98.6866C191.598 102.275 191.857 106.02 191.386 109.709Z" fill="#FFC517"/>
<path d="M165.232 87.2869C164.679 87.2164 164.12 87.3684 163.679 87.7096C163.238 88.0508 162.95 88.5533 162.879 89.1066L162.623 91.1126C161.816 91.347 161 91.7179 160.205 92.2383C158.232 93.532 156.988 95.1579 156.516 96.8705C156.045 98.5867 156.346 100.226 156.863 101.527C157.516 103.122 158.507 104.556 159.77 105.731C159.824 105.785 159.882 105.837 159.943 105.886C159.943 105.886 162.946 108.303 164.896 110.962C165.871 112.291 166.483 113.662 166.537 114.449C166.589 115.235 166.596 115.548 165.195 116.257C162.003 117.877 160.652 117.097 159.463 116.065C158.275 115.032 157.682 113.555 157.682 113.555C157.586 113.296 157.44 113.058 157.252 112.855C157.064 112.653 156.838 112.489 156.587 112.374C156.336 112.258 156.064 112.194 155.788 112.183C155.512 112.173 155.236 112.217 154.977 112.313C154.454 112.508 154.03 112.901 153.798 113.408C153.565 113.914 153.543 114.492 153.737 115.015C153.737 115.015 154.569 117.387 156.706 119.241C157.298 119.758 158.031 120.212 158.865 120.561L158.62 122.493C158.549 123.046 158.701 123.605 159.042 124.046C159.384 124.487 159.886 124.775 160.439 124.846C160.993 124.916 161.551 124.764 161.993 124.423C162.434 124.082 162.722 123.58 162.792 123.026L163.025 121.199C164.448 121.073 165.832 120.67 167.1 120.011C169.554 118.763 170.881 116.36 170.735 114.175C170.593 111.989 169.499 110.128 168.285 108.473C165.967 105.312 162.931 102.889 162.656 102.673C162.634 102.652 161.338 101.392 160.773 99.969C160.487 99.2529 160.401 98.6033 160.57 97.9888C160.74 97.3743 161.17 96.6361 162.512 95.7558C163.699 94.977 164.409 94.9364 165.029 95.0582C165.649 95.18 166.293 95.5842 166.897 96.1987C168.102 97.4296 168.857 99.2474 168.857 99.2474C169.058 99.7675 169.457 100.187 169.966 100.412C170.476 100.638 171.055 100.653 171.575 100.453C172.096 100.252 172.515 99.8521 172.741 99.342C172.967 98.8318 172.981 98.2528 172.78 97.7323C172.78 97.7323 171.887 95.2815 169.903 93.257C169.113 92.4506 168.102 91.6736 166.851 91.2178L167.054 89.6381C167.124 89.0848 166.971 88.5263 166.63 88.0855C166.288 87.6446 165.785 87.3574 165.232 87.2869Z" fill="white"/>
</svg>
