<svg width="20" height="22" viewBox="0 0 20 22" fill="none" xmlns="http://www.w3.org/2000/svg">
<g id="elements">
<g id="Icon">
<path d="M15.25 5C15.25 4.58579 14.9142 4.25 14.5 4.25C14.0858 4.25 13.75 4.58579 13.75 5V8C13.75 8.41421 14.0858 8.75 14.5 8.75C14.9142 8.75 15.25 8.41421 15.25 8V5Z" fill="#828282"/>
<path d="M11 4.25C11.4142 4.25 11.75 4.58579 11.75 5V8C11.75 8.41421 11.4142 8.75 11 8.75C10.5858 8.75 10.25 8.41421 10.25 8V5C10.25 4.58579 10.5858 4.25 11 4.25Z" fill="#828282"/>
<path d="M8.25 5C8.25 4.58579 7.91421 4.25 7.5 4.25C7.08579 4.25 6.75 4.58579 6.75 5V8C6.75 8.41421 7.08579 8.75 7.5 8.75C7.91421 8.75 8.25 8.41421 8.25 8V5Z" fill="#828282"/>
<path fill-rule="evenodd" clip-rule="evenodd" d="M12.5549 0.250001H9.44514C8.07756 0.24998 6.97523 0.249964 6.10827 0.366525C5.20816 0.487541 4.45028 0.746435 3.84837 1.34835C3.24645 1.95027 2.98756 2.70814 2.86654 3.60825C2.74998 4.47522 2.75 5.57754 2.75002 6.94513L2.75002 7.89922C2.75002 8.46714 2.74735 8.66101 2.71533 8.84123C2.67285 9.08033 2.59194 9.31098 2.47575 9.52423C2.38816 9.68496 2.26914 9.83801 1.91437 10.2815L1.87515 10.3305C1.57414 10.7066 1.36579 10.9669 1.20714 11.2581C1.01348 11.6135 0.87863 11.9979 0.807832 12.3964C0.749833 12.7229 0.749905 13.0563 0.750009 13.538L0.750017 13.918C0.750008 15.3455 0.75 16.4765 0.845417 17.3777C0.943225 18.3014 1.14807 19.0701 1.61671 19.7354C1.93064 20.1811 2.31895 20.5694 2.76462 20.8833C3.42992 21.3519 4.1986 21.5568 5.12236 21.6546C6.02355 21.75 7.15457 21.75 8.58204 21.75H10.5564C12.3942 21.75 13.8498 21.75 14.989 21.5969C16.1615 21.4392 17.1104 21.1071 17.8588 20.3588C18.6071 19.6104 18.9393 18.6614 19.0969 17.489C19.25 16.3498 19.25 14.8942 19.25 13.0565V6.94513C19.25 5.57754 19.2501 4.47522 19.1335 3.60825C19.0125 2.70814 18.7536 1.95027 18.1517 1.34835C17.5498 0.746435 16.7919 0.487541 15.8918 0.366525C15.0248 0.249964 13.9225 0.24998 12.5549 0.250001ZM4.90903 2.40901C5.18579 2.13225 5.57436 1.9518 6.30814 1.85315C7.06349 1.75159 8.0646 1.75 9.50002 1.75H12.5C13.9354 1.75 14.9365 1.75159 15.6919 1.85315C16.4257 1.9518 16.8142 2.13225 17.091 2.40901C17.3678 2.68577 17.5482 3.07435 17.6469 3.80812C17.7484 4.56347 17.75 5.56459 17.75 7V13C17.75 14.9068 17.7484 16.2615 17.6103 17.2892C17.475 18.2952 17.2213 18.8749 16.7981 19.2981C16.3749 19.7213 15.7953 19.975 14.7892 20.1102C13.7615 20.2484 12.4068 20.25 10.5 20.25H8.62542C7.14487 20.25 6.09328 20.249 5.28029 20.1629C4.48077 20.0783 3.99925 19.9182 3.62843 19.657C3.3235 19.4422 3.05781 19.1765 2.84302 18.8716C2.58181 18.5008 2.42173 18.0193 2.33708 17.2197C2.251 16.4067 2.25002 15.3552 2.25002 13.8746V13.6008C2.25002 13.0329 2.25269 12.839 2.28471 12.6588C2.32719 12.4197 2.40809 12.189 2.52429 11.9758C2.61187 11.815 2.73089 11.662 3.08567 11.2185L3.12488 11.1695C3.42588 10.7934 3.63425 10.5331 3.7929 10.2419C3.98656 9.88653 4.12141 9.50211 4.1922 9.10361C4.2502 8.77714 4.25013 8.44371 4.25003 7.962L4.25002 7C4.25002 5.56459 4.25161 4.56347 4.35317 3.80812C4.45182 3.07435 4.63226 2.68577 4.90903 2.40901Z" fill="#828282"/>
</g>
</g>
</svg>
